ply
format ascii 1.0
element vertex 87
property float x
property float y
property float z
property float nx
property float ny
property float nz
property uchar red
property uchar green
property uchar blue
property uchar alpha
element face 29
property list uchar int vertex_indices
end_header
-21.54 4.56 -2.445 0 -0.3133775 -0.9496286 127 127 127 1
-19.54 6.56 -3.105 0 -0.3133775 -0.9496286 127 127 127 1
-19.54 4.56 -2.445 0 -0.3133775 -0.9496286 127 127 127 1
-21.54 4.56 -2.445 0 -0.3133775 -0.9496286 127 127 127 1
-21.54 6.56 -3.105 0 -0.3133775 -0.9496286 127 127 127 1
-19.54 6.56 -3.105 0 -0.3133775 -0.9496286 127 127 127 1
-21.54 6.56 -3.105 0 0 -1 127 127 127 1
-19.54 8.56 -3.105 0 0 -1 127 127 127 1
-19.54 6.56 -3.105 0 0 -1 127 127 127 1
-21.54 6.56 -3.105 0 0 -1 127 127 127 1
-21.54 8.56 -3.105 0 0 -1 127 127 127 1
-19.54 8.56 -3.105 0 0 -1 127 127 127 1
-25.54 4.56 -2.445 0 -0.3133775 -0.9496286 127 127 127 1
-23.54 6.56 -3.105 0 -0.3133775 -0.9496286 127 127 127 1
-23.54 4.56 -2.445 0 -0.3133775 -0.9496286 127 127 127 1
-25.54 4.56 -2.445 0 -0.3133775 -0.9496286 127 127 127 1
-25.54 6.56 -3.105 0 -0.3133775 -0.9496286 127 127 127 1
-23.54 6.56 -3.105 0 -0.3133775 -0.9496286 127 127 127 1
-23.54 4.56 -2.445 0 -0.3133775 -0.9496286 127 127 127 1
-21.54 6.56 -3.105 0 -0.3133775 -0.9496286 127 127 127 1
-21.54 4.56 -2.445 0 -0.3133775 -0.9496286 127 127 127 1
-23.54 4.56 -2.445 0 -0.3133775 -0.9496286 127 127 127 1
-23.54 6.56 -3.105 0 -0.3133775 -0.9496286 127 127 127 1
-21.54 6.56 -3.105 0 -0.3133775 -0.9496286 127 127 127 1
-23.54 6.56 -3.105 0 0 -1 127 127 127 1
-21.54 8.56 -3.105 0 0 -1 127 127 127 1
-21.54 6.56 -3.105 0 0 -1 127 127 127 1
-23.54 6.56 -3.105 0 0 -1 127 127 127 1
-23.54 8.56 -3.105 0 0 -1 127 127 127 1
-21.54 8.56 -3.105 0 0 -1 127 127 127 1
-25.54 6.56 -3.105 0 0 -1 127 127 127 1
-23.54 8.56 -3.105 0 0 -1 127 127 127 1
-23.54 6.56 -3.105 0 0 -1 127 127 127 1
-25.54 6.56 -3.105 0 0 -1 127 127 127 1
-25.54 8.56 -3.105 0 0 -1 127 127 127 1
-23.54 8.56 -3.105 0 0 -1 127 127 127 1
-21.54 8.56 -3.105 0 0.3219028 -0.9467727 127 127 127 1
-19.54 10.56 -2.425 0 0.3219028 -0.9467727 127 127 127 1
-19.54 8.56 -3.105 0 0.3219028 -0.9467727 127 127 127 1
-21.54 8.56 -3.105 0 0.3219028 -0.9467727 127 127 127 1
-21.54 10.56 -2.425 0 0.3219028 -0.9467727 127 127 127 1
-19.54 10.56 -2.425 0 0.3219028 -0.9467727 127 127 127 1
-23.54 8.56 -3.105 0 0.3219028 -0.9467727 127 127 127 1
-21.54 10.56 -2.425 0 0.3219028 -0.9467727 127 127 127 1
-21.54 8.56 -3.105 0 0.3219028 -0.9467727 127 127 127 1
-23.54 8.56 -3.105 0 0.3219028 -0.9467727 127 127 127 1
-23.54 10.56 -2.425 0 0.3219028 -0.9467727 127 127 127 1
-21.54 10.56 -2.425 0 0.3219028 -0.9467727 127 127 127 1
-25.54 8.56 -3.105 0 0.3219028 -0.9467727 127 127 127 1
-23.54 10.56 -2.425 0 0.3219028 -0.9467727 127 127 127 1
-23.54 8.56 -3.105 0 0.3219028 -0.9467727 127 127 127 1
-25.54 8.56 -3.105 0 0.3219028 -0.9467727 127 127 127 1
-25.54 10.56 -2.425 0 0.3219028 -0.9467727 127 127 127 1
-23.54 10.56 -2.425 0 0.3219028 -0.9467727 127 127 127 1
-21.54 10.56 -2.425 0 0.5081488 -0.8612693 127 127 127 1
-19.54 12.56 -1.245 0 0.5081488 -0.8612693 127 127 127 1
-19.54 10.56 -2.425 0 0.5081488 -0.8612693 127 127 127 1
-21.54 10.56 -2.425 0 0.5081488 -0.8612693 127 127 127 1
-21.54 12.56 -1.245 0 0.5081488 -0.8612693 127 127 127 1
-19.54 12.56 -1.245 0 0.5081488 -0.8612693 127 127 127 1
-23.54 10.56 -2.425 0 0.5081488 -0.8612693 127 127 127 1
-21.54 12.56 -1.245 0 0.5081488 -0.8612693 127 127 127 1
-21.54 10.56 -2.425 0 0.5081488 -0.8612693 127 127 127 1
-23.54 10.56 -2.425 0 0.5081488 -0.8612693 127 127 127 1
-23.54 12.56 -1.245 0 0.5081488 -0.8612693 127 127 127 1
-21.54 12.56 -1.245 0 0.5081488 -0.8612693 127 127 127 1
-25.54 10.56 -2.425 0 0.5081488 -0.8612693 127 127 127 1
-23.54 12.56 -1.245 0 0.5081488 -0.8612693 127 127 127 1
-23.54 10.56 -2.425 0 0.5081488 -0.8612693 127 127 127 1
-25.54 10.56 -2.425 0 0.5081488 -0.8612693 127 127 127 1
-25.54 12.56 -1.245 0 0.5081488 -0.8612693 127 127 127 1
-23.54 12.56 -1.245 0 0.5081488 -0.8612693 127 127 127 1
-21.88 7.72 -2.005 0 0 -1 127 127 127 1
-22.66 6.14 -2.005 0 0 -1 127 127 127 1
-22.66 7.72 -2.005 0 0 -1 127 127 127 1
-21.88 7.72 -2.005 0 0 -1 127 127 127 1
-21.88 6.14 -2.005 0 0 -1 127 127 127 1
-22.66 6.14 -2.005 0 0 -1 127 127 127 1
-22.66 7.72 -2.005 0 0 -1 127 127 127 1
-23.46 6.14 -2.005 0 0 -1 127 127 127 1
-23.46 7.72 -2.005 0 0 -1 127 127 127 1
-22.66 7.72 -2.005 0 0 -1 127 127 127 1
-22.66 6.14 -2.005 0 0 -1 127 127 127 1
-23.46 6.14 -2.005 0 0 -1 127 127 127 1
-23.46 7.72 -2.005 0 0 -1 127 127 127 1
-23.46 6.14 -2.005 0 0 -1 127 127 127 1
-24.24 6.14 -2.005 0 0 -1 127 127 127 1
3 0 1 2
3 3 4 5
3 6 7 8
3 9 10 11
3 12 13 14
3 15 16 17
3 18 19 20
3 21 22 23
3 24 25 26
3 27 28 29
3 30 31 32
3 33 34 35
3 36 37 38
3 39 40 41
3 42 43 44
3 45 46 47
3 48 49 50
3 51 52 53
3 54 55 56
3 57 58 59
3 60 61 62
3 63 64 65
3 66 67 68
3 69 70 71
3 72 73 74
3 75 76 77
3 78 79 80
3 81 82 83
3 84 85 86
